<?xml version="1.0" encoding="UTF-8"?>
<svg xmlns="http://www.w3.org/2000/svg" xmlns:xlink="http://www.w3.org/1999/xlink" width="65px" height="65px" viewBox="0 0 65 65" version="1.1">
<g id="surface1">
<rect x="0" y="0" width="65" height="65" style="fill:rgb(0%,0%,0%);fill-opacity:1;stroke:none;"/>
<path style=" stroke:none;fill-rule:nonzero;fill:rgb(95.686275%,95.686275%,95.686275%);fill-opacity:1;" d="M 8.125 10.832031 C 8.125 9.335938 9.335938 8.125 10.832031 8.125 L 27.082031 8.125 C 28.578125 8.125 29.792969 9.335938 29.792969 10.832031 L 29.792969 27.082031 C 29.792969 28.578125 28.578125 29.792969 27.082031 29.792969 L 10.832031 29.792969 C 9.335938 29.792969 8.125 28.578125 8.125 27.082031 Z M 8.125 10.832031 "/>
<path style=" stroke:none;fill-rule:nonzero;fill:rgb(95.686275%,95.686275%,95.686275%);fill-opacity:1;" d="M 8.125 37.917969 C 8.125 36.421875 9.335938 35.207031 10.832031 35.207031 L 27.082031 35.207031 C 28.578125 35.207031 29.792969 36.421875 29.792969 37.917969 L 29.792969 54.167969 C 29.792969 55.664062 28.578125 56.875 27.082031 56.875 L 10.832031 56.875 C 9.335938 56.875 8.125 55.664062 8.125 54.167969 Z M 8.125 37.917969 "/>
<path style=" stroke:none;fill-rule:nonzero;fill:rgb(95.686275%,95.686275%,95.686275%);fill-opacity:1;" d="M 35.207031 10.832031 C 35.207031 9.335938 36.421875 8.125 37.917969 8.125 L 54.167969 8.125 C 55.664062 8.125 56.875 9.335938 56.875 10.832031 L 56.875 27.082031 C 56.875 28.578125 55.664062 29.792969 54.167969 29.792969 L 37.917969 29.792969 C 36.421875 29.792969 35.207031 28.578125 35.207031 27.082031 Z M 35.207031 10.832031 "/>
<path style=" stroke:none;fill-rule:evenodd;fill:rgb(95.686275%,95.686275%,95.686275%);fill-opacity:1;" d="M 38.730469 38.730469 L 38.730469 53.355469 L 53.355469 53.355469 L 53.355469 38.730469 Z M 37.917969 35.207031 C 36.421875 35.207031 35.207031 36.421875 35.207031 37.917969 L 35.207031 54.167969 C 35.207031 55.664062 36.421875 56.875 37.917969 56.875 L 54.167969 56.875 C 55.664062 56.875 56.875 55.664062 56.875 54.167969 L 56.875 37.917969 C 56.875 36.421875 55.664062 35.207031 54.167969 35.207031 Z M 37.917969 35.207031 "/>
</g>
</svg>
